<svg xmlns="http://www.w3.org/2000/svg" width="48" height="48" viewBox="0 0 48 48" enable-background="new 0 0 16 16"><style>.arrow-right{fill:#d557ff;}</style><path class='arrow-right' d="M24 0C10.746 0 0 10.746 0 24s10.746 24 24 24 24-10.746 24-24S37.254 0 24 0zm0 6c9.94 0 18 8.06 18 18s-8.06 18-18 18S6 33.94 6 24 14.06 6 24 6zm11.124 15.88c.585.584.88 1.352.88 2.12s-.295 1.536-.88 2.12l-6 6c-.858.86-2.15 1.114-3.273.652C24.733 32.31 24 31.212 24 30v-3h-9c-1.66 0-3-1.34-3-3s1.34-3 3-3h9v-3c0-1.212.732-2.31 1.85-2.772 1.126-.462 2.416-.204 3.274.65l6 6z"/></svg>